<?xml version="1.0" encoding="utf-8"?>
<!-- Generator: Adobe Illustrator 24.2.3, SVG Export Plug-In . SVG Version: 6.00 Build 0)  -->
<svg version="1.1" id="Layer_1" xmlns="http://www.w3.org/2000/svg" xmlns:xlink="http://www.w3.org/1999/xlink" x="0px" y="0px"
	 viewBox="0 0 120.5 28" style="enable-background:new 0 0 120.5 28;" xml:space="preserve" height="28" width="120.5">
<style type="text/css">
	.st0{fill:#555555;}
	.st1{fill:#8361B3;}
	.st2{fill:#FFFFFF;}
</style>
<g shape-rendering="crispEdges">
	<rect class="st0" width="0" height="28"/>
	<rect class="st1" width="120.5" height="28"/>
</g>
<path class="st2" d="M41.8,12.5c0,0.3-0.1,0.6-0.2,1c-0.1,0.3-0.3,0.6-0.5,0.8c-0.3,0.3-0.6,0.5-1,0.6c-0.4,0.1-0.8,0.2-1.3,0.2
	h-1.2v2.4h-1.9v-7.3h3.1c0.5,0,0.9,0,1.2,0.1c0.3,0.1,0.6,0.2,0.8,0.4c0.3,0.2,0.5,0.4,0.7,0.7C41.7,11.7,41.8,12.1,41.8,12.5z
	 M39.8,12.6c0-0.2-0.1-0.4-0.2-0.5c-0.1-0.1-0.2-0.3-0.4-0.3c-0.2-0.1-0.4-0.1-0.6-0.1c-0.2,0-0.4,0-0.7,0h-0.3v2.2h0.5
	c0.3,0,0.6,0,0.8-0.1c0.2,0,0.4-0.1,0.5-0.2c0.1-0.1,0.2-0.2,0.3-0.4C39.8,13,39.8,12.8,39.8,12.6z"/>
<path class="st2" d="M51.8,13.9c0,1.2-0.3,2.1-1,2.8c-0.7,0.7-1.6,1-2.8,1c-1.2,0-2.1-0.3-2.7-1c-0.7-0.7-1-1.6-1-2.8
	c0-1.2,0.3-2.1,1-2.8c0.7-0.7,1.6-1,2.7-1c1.2,0,2.1,0.3,2.7,1C51.4,11.8,51.8,12.7,51.8,13.9z M49.3,15.7c0.2-0.2,0.3-0.5,0.4-0.8
	c0.1-0.3,0.1-0.7,0.1-1.1c0-0.4-0.1-0.8-0.2-1.1s-0.2-0.6-0.4-0.7c-0.2-0.2-0.4-0.3-0.6-0.4c-0.2-0.1-0.4-0.1-0.7-0.1
	c-0.2,0-0.5,0-0.7,0.1c-0.2,0.1-0.4,0.2-0.6,0.4c-0.2,0.2-0.3,0.4-0.4,0.8c-0.1,0.3-0.2,0.7-0.2,1.1c0,0.4,0,0.8,0.1,1.1
	c0.1,0.3,0.2,0.6,0.4,0.7s0.4,0.3,0.6,0.4s0.4,0.1,0.7,0.1s0.5,0,0.7-0.1C48.9,16,49.1,15.9,49.3,15.7z"/>
<path class="st2" d="M61.8,17.5h-2.3l-2-2.7h-0.9v2.7h-1.9v-7.3h3.1c0.4,0,0.8,0,1.1,0.1s0.6,0.2,0.9,0.3c0.3,0.2,0.5,0.4,0.7,0.6
	c0.2,0.3,0.2,0.6,0.2,1c0,0.5-0.1,1-0.4,1.3c-0.3,0.3-0.6,0.6-1.1,0.8L61.8,17.5z M58.9,12.5c0-0.2,0-0.3-0.1-0.5s-0.2-0.2-0.4-0.3
	c-0.1-0.1-0.3-0.1-0.4-0.1c-0.2,0-0.4,0-0.6,0h-0.7v2h0.6c0.3,0,0.5,0,0.8,0s0.4-0.1,0.5-0.2c0.1-0.1,0.2-0.2,0.3-0.3
	C58.8,12.8,58.9,12.7,58.9,12.5z"/>
<path class="st2" d="M69.9,11.6h-2.3v5.9h-1.9v-5.9h-2.3v-1.4h6.4V11.6z"/>
<path class="st2" d="M77.8,11.6h-3.3V13h3.1v1.4h-3.1v3.1h-1.9v-7.3h5.2V11.6z"/>
<path class="st2" d="M87.8,13.9c0,1.2-0.3,2.1-1,2.8c-0.7,0.7-1.6,1-2.8,1c-1.2,0-2.1-0.3-2.7-1c-0.7-0.7-1-1.6-1-2.8
	c0-1.2,0.3-2.1,1-2.8c0.7-0.7,1.6-1,2.7-1c1.2,0,2.1,0.3,2.7,1C87.4,11.8,87.8,12.7,87.8,13.9z M85.3,15.7c0.2-0.2,0.3-0.5,0.4-0.8
	c0.1-0.3,0.1-0.7,0.1-1.1c0-0.4-0.1-0.8-0.2-1.1s-0.2-0.6-0.4-0.7c-0.2-0.2-0.4-0.3-0.6-0.4c-0.2-0.1-0.4-0.1-0.7-0.1
	c-0.2,0-0.5,0-0.7,0.1c-0.2,0.1-0.4,0.2-0.6,0.4c-0.2,0.2-0.3,0.4-0.4,0.8c-0.1,0.3-0.2,0.7-0.2,1.1c0,0.4,0,0.8,0.1,1.1
	c0.1,0.3,0.2,0.6,0.4,0.7s0.4,0.3,0.6,0.4s0.4,0.1,0.7,0.1s0.5,0,0.7-0.1C84.9,16,85.1,15.9,85.3,15.7z"/>
<path class="st2" d="M96,17.5h-5.2v-7.3h1.9v5.9H96V17.5z"/>
<path class="st2" d="M102.7,17.5h-4.3v-1.3h1.2v-4.7h-1.2v-1.3h4.3v1.3h-1.2v4.7h1.2V17.5z"/>
<path class="st2" d="M112.9,13.9c0,1.2-0.3,2.1-1,2.8c-0.7,0.7-1.6,1-2.8,1c-1.2,0-2.1-0.3-2.7-1c-0.7-0.7-1-1.6-1-2.8
	c0-1.2,0.3-2.1,1-2.8c0.7-0.7,1.6-1,2.7-1c1.2,0,2.1,0.3,2.7,1C112.5,11.8,112.9,12.7,112.9,13.9z M110.4,15.7
	c0.2-0.2,0.3-0.5,0.4-0.8c0.1-0.3,0.1-0.7,0.1-1.1c0-0.4-0.1-0.8-0.2-1.1s-0.2-0.6-0.4-0.7c-0.2-0.2-0.4-0.3-0.6-0.4
	c-0.2-0.1-0.4-0.1-0.7-0.1c-0.2,0-0.5,0-0.7,0.1c-0.2,0.1-0.4,0.2-0.6,0.4c-0.2,0.2-0.3,0.4-0.4,0.8c-0.1,0.3-0.2,0.7-0.2,1.1
	c0,0.4,0,0.8,0.1,1.1c0.1,0.3,0.2,0.6,0.4,0.7s0.4,0.3,0.6,0.4s0.4,0.1,0.7,0.1s0.5,0,0.7-0.1C110,16,110.2,15.9,110.4,15.7z"/>
<path class="st2" d="M10.4,18.9c-0.9-0.3-1.5-0.6-2.1-1l0.9-2.1c0.5,0.4,1.1,0.7,1.8,0.9c0.7,0.2,1.4,0.3,2.1,0.3
	c0.8,0,1.3-0.1,1.7-0.4c0.4-0.2,0.5-0.6,0.5-0.9c0-0.3-0.1-0.5-0.3-0.7c-0.2-0.2-0.5-0.3-0.8-0.5c-0.3-0.1-0.8-0.2-1.4-0.4
	c-0.9-0.2-1.6-0.4-2.2-0.7c-0.6-0.2-1-0.6-1.5-1.1c-0.4-0.5-0.6-1.1-0.6-1.9c0-0.7,0.2-1.3,0.5-1.9c0.4-0.6,0.9-1,1.7-1.4
	c0.7-0.3,1.6-0.5,2.7-0.5c0.7,0,1.5,0.1,2.2,0.3c0.7,0.2,1.3,0.4,1.9,0.8l-0.8,2.1c-1.1-0.6-2.1-1-3.2-1c-0.8,0-1.3,0.1-1.7,0.4
	c-0.4,0.3-0.5,0.6-0.5,1c0,0.4,0.2,0.7,0.6,0.9c0.4,0.2,1,0.4,1.9,0.6c0.9,0.2,1.6,0.4,2.2,0.7c0.6,0.2,1.1,0.6,1.5,1
	c0.4,0.5,0.6,1.1,0.6,1.9c0,0.7-0.2,1.3-0.6,1.9c-0.4,0.6-0.9,1-1.7,1.4c-0.7,0.3-1.6,0.5-2.7,0.5C12.1,19.3,11.2,19.1,10.4,18.9z"
	/>
<path class="st2" d="M27.7,10.6c0.7,0.7,1,1.7,1,3.1v5.3h-2.6v-4.9c0-0.7-0.2-1.3-0.5-1.7c-0.3-0.4-0.8-0.5-1.3-0.5
	c-0.7,0-1.2,0.2-1.6,0.6c-0.4,0.4-0.6,1-0.6,1.9v4.6h-2.6V9.7h2.5v1.1c0.3-0.4,0.8-0.7,1.3-0.9c0.5-0.2,1.1-0.3,1.7-0.3
	C26.2,9.6,27.1,10,27.7,10.6z"/>
</svg>
